<mxfile host="65bd71144e">
    <diagram id="ko5nTe5iHNsnHmNS8VFl" name="Page-1">
        <mxGraphModel dx="605" dy="451" grid="1" gridSize="10" guides="1" tooltips="1" connect="1" arrows="1" fold="1" page="1" pageScale="1" pageWidth="850" pageHeight="1100" math="0" shadow="0">
            <root>
                <mxCell id="0"/>
                <mxCell id="1" parent="0"/>
                <mxCell id="2" value="&lt;b&gt;1: Impractical&lt;/b&gt;" style="ellipse;whiteSpace=wrap;html=1;aspect=fixed;fillColor=#0049B866;gradientColor=none;strokeWidth=5;strokeColor=#0049B8;" vertex="1" parent="1">
                    <mxGeometry x="80" y="50" width="190" height="190" as="geometry"/>
                </mxCell>
                <mxCell id="3" value="&lt;b&gt;2: Novel&lt;/b&gt;" style="ellipse;whiteSpace=wrap;html=1;aspect=fixed;fillColor=#008A0066;strokeWidth=5;strokeColor=#008A00;" vertex="1" parent="1">
                    <mxGeometry x="80" y="160" width="190" height="190" as="geometry"/>
                </mxCell>
                <mxCell id="4" value="&lt;b&gt;3: Overshadowed&lt;/b&gt;" style="ellipse;whiteSpace=wrap;html=1;aspect=fixed;fillColor=#00CC0066;strokeWidth=5;strokeColor=#00CC00;" vertex="1" parent="1">
                    <mxGeometry x="80" y="280" width="190" height="190" as="geometry"/>
                </mxCell>
                <mxCell id="5" value="&lt;b&gt;No existing &lt;br&gt;library ecosystem&lt;/b&gt;" style="text;html=1;align=center;verticalAlign=middle;resizable=0;points=[];autosize=1;strokeColor=none;fillColor=none;fontStyle=2" vertex="1" parent="1">
                    <mxGeometry x="115" y="185" width="120" height="30" as="geometry"/>
                </mxCell>
                <mxCell id="6" value="&lt;b&gt;&lt;i&gt;Not many examples&lt;br&gt;to draw from&lt;br&gt;&lt;/i&gt;&lt;/b&gt;" style="text;html=1;align=center;verticalAlign=middle;resizable=0;points=[];autosize=1;strokeColor=none;fillColor=none;" vertex="1" parent="1">
                    <mxGeometry x="110" y="300" width="130" height="30" as="geometry"/>
                </mxCell>
            </root>
        </mxGraphModel>
    </diagram>
</mxfile>